<?xml version="1.0" standalone="no"?>
<!DOCTYPE svg PUBLIC "-//W3C//DTD SVG 20010904//EN"
 "http://www.w3.org/TR/2001/REC-SVG-20010904/DTD/svg10.dtd">
<svg version="1.0" xmlns="http://www.w3.org/2000/svg"
 width="16.000000pt" height="16.000000pt" viewBox="0 0 16.000000 16.000000"
 preserveAspectRatio="xMidYMid meet">
<metadata>
Created by potrace 1.11, written by Peter Selinger 2001-2013
</metadata>
<g transform="translate(0.000000,16.000000) scale(0.004000,-0.004000)"
fill="#000000" stroke="none">
<path d="M605 3213 c3 -16 129 -559 278 -1208 l272 -1180 202 -3 201 -2 16 52
c8 29 67 251 131 493 64 242 118 448 121 458 5 16 -6 17 -162 15 l-167 -3 -52
-199 c-28 -110 -54 -195 -57 -190 -3 5 -88 411 -189 902 l-183 892 -209 0
-209 0 7 -27z"/>
<path d="M1775 2933 c-43 -170 -100 -390 -125 -491 l-47 -182 171 2 171 3 40
153 c22 83 42 152 45 152 3 0 106 -388 229 -863 123 -474 226 -868 229 -875 3
-10 50 -12 204 -10 l201 3 117 508 117 507 -191 -2 -190 -3 -41 -197 c-22
-109 -42 -198 -45 -198 -3 0 -106 405 -230 900 l-225 900 -176 0 -176 0 -78
-307z"/>
<path d="M2992 3038 c-23 -112 -69 -332 -101 -491 l-59 -287 196 2 197 3 112
485 c62 267 112 486 113 488 0 1 -94 2 -208 2 l-209 0 -41 -202z"/>
</g>
</svg>
